<svg xmlns="http://www.w3.org/2000/svg" viewBox="0 0 64 64">
  <circle cx="32" cy="28" r="6" fill="#FFE082"/>
  <ellipse cx="32" cy="18" rx="5" ry="8" fill="#AED581"/>
  <ellipse cx="32" cy="38" rx="5" ry="8" fill="#AED581"/>
  <ellipse cx="22" cy="28" rx="8" ry="5" fill="#C5E1A5"/>
  <ellipse cx="42" cy="28" rx="8" ry="5" fill="#C5E1A5"/>
  <ellipse cx="24" cy="20" rx="5" ry="7" fill="#AED581" transform="rotate(-45 24 20)"/>
  <ellipse cx="40" cy="20" rx="5" ry="7" fill="#AED581" transform="rotate(45 40 20)"/>
  <ellipse cx="24" cy="36" rx="5" ry="7" fill="#C5E1A5" transform="rotate(45 24 36)"/>
  <ellipse cx="40" cy="36" rx="5" ry="7" fill="#C5E1A5" transform="rotate(-45 40 36)"/>
  <circle cx="32" cy="28" r="5" fill="#FFE082"/>
  <line x1="32" y1="36" x2="32" y2="58" stroke="#7CB342" stroke-width="2.5" stroke-linecap="round"/>
  <path d="M32 48 Q26 44 22 46" fill="none" stroke="#7CB342" stroke-width="1.5" stroke-linecap="round"/>
  <ellipse cx="20" cy="46" rx="4" ry="2.5" fill="#C5E1A5" transform="rotate(-20 20 46)"/>
</svg>
